<?xml version="1.0" encoding="UTF-8"?> <svg xmlns="http://www.w3.org/2000/svg" width="1749" height="379" viewBox="0 0 1749 379" fill="none"><path d="M308 282.178C298.971 282.178 290.483 280.118 282.534 275.996C274.684 271.875 268.256 266.281 263.251 259.215L258.688 225.36L275.91 209.462L276.205 224.182C276.303 230.07 277.775 235.516 280.621 240.521C283.466 245.428 287.294 249.353 292.102 252.297C296.911 255.143 302.21 256.566 308 256.566L312.71 269.519L308 282.178ZM83.3738 282.178C72.8735 282.178 63.1584 279.578 54.2283 274.377C45.3964 269.176 38.3308 262.159 33.0317 253.327C27.8306 244.397 25.2301 234.682 25.2301 224.182V177.373L51.1371 171.043V224.182C51.1371 230.07 52.5601 235.516 55.4059 240.521C58.3499 245.428 62.2752 249.353 67.1819 252.297C72.1866 255.143 77.5839 256.566 83.3738 256.566H218.208C223.998 256.566 229.346 255.143 234.253 252.297C239.258 249.353 243.183 245.428 246.029 240.521C248.973 235.516 250.445 230.07 250.445 224.182V177.373L276.205 171.043V224.182C276.205 234.682 273.604 244.397 268.403 253.327C263.202 262.159 256.136 269.176 247.206 274.377C238.374 279.578 228.708 282.178 218.208 282.178H83.3738ZM137.249 312.501H163.744V335.906H137.249V312.501ZM307.264 282.178L303.436 269.519L307.558 256.566H308C313.888 256.566 319.285 255.143 324.191 252.297C329.098 249.353 332.974 245.428 335.82 240.521C338.764 235.516 340.236 230.07 340.236 224.182V100.24L366.143 94.058V224.182C366.143 234.682 363.543 244.397 358.342 253.327C353.141 262.159 346.075 269.176 337.145 274.377C328.215 279.578 318.5 282.178 308 282.178H307.264ZM414.572 327.663L482.872 282.178H445.336C435.916 282.178 427.133 279.676 418.988 274.671C410.941 269.667 404.513 263.092 399.705 254.947C394.994 246.802 392.639 238.313 392.639 229.481C392.639 219.864 394.994 211.032 399.705 202.985C404.415 194.84 410.794 188.413 418.84 183.702C426.985 178.894 435.817 176.49 445.336 176.49H498.181V290.422L423.256 340.469L414.572 327.663ZM482.872 266.87V191.798H445.336C438.565 191.798 432.285 193.466 426.495 196.803C420.803 200.14 416.289 204.703 412.953 210.493C409.616 216.184 407.948 222.416 407.948 229.187C407.948 235.958 409.616 242.238 412.953 248.028C416.289 253.818 420.803 258.43 426.495 261.865C432.285 265.202 438.565 266.87 445.336 266.87H482.872ZM491.262 266.87H513.048L515.697 274.671L513.048 282.178H491.262V266.87ZM512.753 282.178L510.545 274.671L512.901 266.87H513.195C519.966 266.87 526.198 265.202 531.889 261.865C537.581 258.528 542.095 254.014 545.432 248.323C548.768 242.533 550.436 236.252 550.436 229.481V186.646L565.745 182.819V229.481C565.745 236.252 567.413 242.533 570.75 248.323C574.185 254.014 578.748 258.528 584.439 261.865C590.229 265.202 596.51 266.87 603.281 266.87L605.93 274.671L603.281 282.178C593.86 282.178 585.126 279.872 577.079 275.26C569.033 270.648 562.703 264.466 558.091 256.713C553.282 264.564 546.904 270.795 538.955 275.407C531.104 279.921 522.518 282.178 513.195 282.178H512.753ZM542.782 134.538H563.537V151.613H542.782V134.538ZM600.631 274.671L603.281 266.87H629.335C636.106 266.87 642.338 265.202 648.029 261.865C653.721 258.528 658.235 254.014 661.572 248.323C664.908 242.533 666.577 236.252 666.577 229.481V186.646L681.591 182.819V229.481C681.591 236.252 683.259 242.484 686.596 248.175C690.03 253.867 694.643 258.43 700.432 261.865C706.222 265.202 712.503 266.87 719.274 266.87L721.923 274.671L719.274 282.178C709.853 282.178 701.119 279.872 693.072 275.26C685.124 270.648 678.843 264.466 674.231 256.713C669.422 264.466 663.044 270.648 655.095 275.26C647.146 279.872 638.56 282.178 629.335 282.178H603.281L600.631 274.671ZM675.556 327.663H621.386V312.501H675.556V327.663ZM716.624 274.671L719.274 266.87H744.887C751.658 266.87 757.938 265.202 763.728 261.865C769.518 258.43 774.081 253.867 777.418 248.175C780.852 242.484 782.569 236.252 782.569 229.481V191.798H797.584V238.755C797.584 243.858 798.86 248.568 801.411 252.886C803.962 257.106 807.397 260.491 811.715 263.043C816.033 265.594 820.694 266.87 825.699 266.87C830.9 266.87 835.659 265.594 839.977 263.043C844.295 260.491 847.681 257.106 850.134 252.886C852.685 248.568 853.961 243.858 853.961 238.755V191.798H869.27V238.755C869.27 243.858 870.545 248.568 873.097 252.886C875.648 257.106 879.083 260.491 883.401 263.043C887.719 265.594 892.38 266.87 897.385 266.87C902.586 266.87 907.345 265.594 911.663 263.043C915.981 260.491 919.367 257.106 921.82 252.886C924.371 248.568 925.647 243.858 925.647 238.755V188.118L940.956 184.291V238.608C940.956 246.458 938.993 253.72 935.068 260.393C931.241 267.066 925.99 272.365 919.317 276.291C912.644 280.216 905.334 282.178 897.385 282.178C891.104 282.178 884.578 280.265 877.807 276.438C871.036 272.512 865.688 268.096 861.763 263.19C857.837 269.078 852.685 273.739 846.307 277.174C839.928 280.51 833.059 282.178 825.699 282.178C820.988 282.178 816.082 281.05 810.979 278.793C805.974 276.536 801.411 273.739 797.289 270.403C793.168 266.968 790.028 263.582 787.869 260.246C782.864 267.017 776.583 272.365 769.027 276.291C761.569 280.216 753.522 282.178 744.887 282.178H719.274L716.624 274.671ZM978.491 282.178C969.071 282.178 960.288 279.872 952.143 275.26C944.096 270.648 937.766 264.466 933.154 256.713L930.505 221.974L940.956 216.675V229.481C940.956 236.252 942.624 242.533 945.96 248.323C949.395 254.014 953.958 258.528 959.65 261.865C965.44 265.202 971.72 266.87 978.491 266.87L981.141 274.671L978.491 282.178ZM975.989 274.671L978.639 266.87H1142.18C1148.95 266.87 1155.18 265.202 1160.87 261.865C1166.66 258.528 1171.22 254.014 1174.56 248.323C1178 242.533 1179.71 236.252 1179.71 229.481C1179.71 222.71 1178 216.479 1174.56 210.787C1171.22 204.997 1166.66 200.434 1160.87 197.097C1155.18 193.663 1148.95 191.945 1142.18 191.945H994.095V176.49L1099.93 108.631L1108.76 121.879L1021.47 176.637H1142.18C1151.79 176.637 1160.63 178.992 1168.67 183.702C1176.82 188.413 1183.25 194.84 1187.96 202.985C1192.67 211.032 1195.02 219.864 1195.02 229.481C1195.02 239 1192.67 247.832 1187.96 255.977C1183.25 264.024 1176.82 270.403 1168.67 275.113C1160.63 279.823 1151.79 282.178 1142.18 282.178H978.639L975.989 274.671ZM1232.26 282.178C1222.84 282.178 1214.16 279.921 1206.21 275.407C1198.26 270.795 1191.88 264.564 1187.07 256.713L1185.75 240.08L1184.86 229.481H1195.02C1195.02 236.252 1196.69 242.533 1200.03 248.323C1203.36 254.014 1207.88 258.528 1213.57 261.865C1219.26 265.202 1225.49 266.87 1232.26 266.87L1234.91 274.671L1232.26 282.178ZM1231.67 282.178L1229.76 274.671L1231.97 266.87H1232.41C1239.18 266.87 1245.41 265.202 1251.1 261.865C1256.8 258.528 1261.31 254.014 1264.65 248.323C1267.98 242.533 1269.65 236.252 1269.65 229.481V186.646L1285.11 182.819V229.481C1285.11 239 1282.7 247.832 1277.89 255.977C1273.18 264.024 1266.81 270.403 1258.76 275.113C1250.71 279.823 1241.93 282.178 1232.41 282.178H1231.67ZM1262.44 134.538H1283.19V151.613H1262.44V134.538Z" fill="#292929"></path><path fill-rule="evenodd" clip-rule="evenodd" d="M1748.18 378.836V189.747L1674.68 116.252V333.17H1674.21H1627.11L1485.59 131V378.836H1748.18ZM1438.98 378.836H1370V0.657471H1559.09L1627.59 69.1583V248.021L1486.07 46.3257H1438.98V378.836Z" fill="#3C9AD5"></path><path d="M1747.85 0.898682V131.899L1616.85 0.898682H1747.85Z" fill="#3C9AD5"></path></svg> 